<?xml version='1.0' encoding='utf-8'?>
<svg xmlns="http://www.w3.org/2000/svg" xmlns:xlink="http://www.w3.org/1999/xlink" width="320px" height="23px" viewBox="0 0 3206 230" version="1.1">
<defs>
<path id="gl2079" d="M 91 9 C 9 38 -20 182 43 211 C 67 225 96 225 124 216 C 158 201 201 163 182 153 C 168 144 153 153 129 172 C 105 196 86 201 62 187 C 38 163 57 62 96 43 C 124 24 158 33 158 57 C 158 67 163 72 182 72 C 211 72 216 67 201 38 C 187 9 134 0 91 9 z" fill="black"/><!-- width=216 height=230 -->
<path id="gl2080" d="M 91 14 C 76 24 72 24 76 14 C 76 9 72 4 57 4 C 52 4 43 4 38 4 C 33 14 33 24 28 33 C 28 48 19 86 14 115 C 9 129 9 148 4 168 C 9 168 19 168 24 168 C 48 168 43 168 57 105 C 67 52 81 33 110 38 C 124 38 124 38 124 19 C 124 0 115 0 91 14 z" fill="black"/><!-- width=139 height=172 -->
<path id="gl2081" d="M 52 19 C 48 24 38 28 33 33 C 38 33 43 33 48 33 C 57 33 76 28 91 19 C 100 14 110 9 120 0 C 110 0 105 0 96 0 C 76 0 67 4 52 19 M 28 105 C 19 134 14 168 9 182 C 9 192 4 201 4 211 C 9 211 19 211 24 211 C 43 211 48 206 48 196 C 48 192 57 163 62 129 C 67 100 76 67 76 62 C 81 52 81 52 57 52 C 52 52 43 52 38 52 C 33 67 28 86 28 105 M 105 153 C 100 172 100 187 105 192 C 110 206 110 206 110 187 C 110 177 110 153 110 144 C 110 134 110 129 110 120 C 110 129 105 139 105 153 z" fill="black"/><!-- width=124 height=216 -->
<path id="gl2082" d="M 33 24 C 33 33 28 38 24 38 C 9 43 0 67 14 67 C 19 67 24 67 19 76 C 9 105 9 196 19 201 C 38 211 76 201 76 182 C 76 172 72 172 57 172 C 43 177 43 163 52 105 C 62 72 62 67 76 67 C 86 67 91 62 91 48 C 91 43 91 38 81 38 C 72 38 67 38 72 24 C 72 19 76 14 76 4 C 67 4 62 4 52 4 C 33 4 33 9 33 24 z" fill="black"/><!-- width=105 height=211 -->
<path id="gl2083" d="M 48 9 C 48 14 43 19 43 24 C 43 28 48 28 62 28 C 86 28 86 28 91 19 C 91 4 91 0 72 0 C 57 0 48 4 48 9 M 28 115 C 19 144 14 177 9 192 C 9 201 4 211 4 220 C 9 220 19 220 24 220 C 43 220 43 216 48 206 C 48 201 57 172 62 139 C 67 110 76 76 76 72 C 81 62 81 57 57 57 C 52 57 43 57 38 57 C 33 76 28 96 28 115 z" fill="black"/><!-- width=100 height=225 -->
<path id="gl2084" d="M 72 4 C 52 14 28 38 19 57 C 4 86 4 139 19 148 C 43 177 96 177 129 144 C 153 120 153 120 129 115 C 115 110 110 115 100 124 C 86 144 76 148 62 139 C 38 124 52 48 86 33 C 100 24 115 28 120 48 C 124 62 168 62 168 48 C 168 14 115 0 72 4 z" fill="black"/><!-- width=172 height=177 -->
<path id="gl2085" d="M 78 6 C 69 8 66 9 55 15 C 51 18 33 34 33 36 C 33 37 33 38 31 40 C 26 46 28 48 50 49 C 69 50 73 49 73 45 C 73 42 81 32 87 28 C 96 24 107 24 111 30 C 117 33 119 39 117 51 C 115 63 114 66 104 66 C 92 66 64 72 50 78 C 30 86 19 95 14 105 C 12 109 9 114 8 116 C 4 123 6 149 9 155 C 15 164 28 169 51 169 C 62 170 66 169 69 168 C 73 166 75 164 76 164 C 78 164 83 163 86 161 C 96 156 95 156 96 161 C 97 162 97 163 97 164 C 103 164 110 164 116 166 C 139 166 140 166 139 162 C 139 160 138 157 138 155 C 137 151 138 140 141 128 C 141 126 143 120 144 114 C 145 109 146 104 146 103 C 147 102 149 97 149 92 C 149 87 150 83 151 80 C 152 78 153 73 153 68 C 153 64 155 58 156 54 C 161 37 155 18 144 10 C 131 2 99 0 78 6 M 107 84 C 110 86 110 84 107 103 C 105 108 104 113 104 114 C 103 114 102 119 102 122 C 101 134 95 138 74 144 C 63 146 60 146 58 145 C 58 144 56 143 55 143 C 43 140 44 119 56 105 C 60 102 72 93 76 92 C 83 91 96 86 99 85 C 102 84 103 84 103 84 C 103 84 105 84 107 84 z" fill="black"/><!-- width=167 height=178 -->
<path id="gl2086" d="M 139 33 C 134 72 134 72 120 62 C 62 28 -10 115 4 187 C 14 220 52 235 86 216 C 96 211 100 211 100 211 C 100 216 115 220 124 220 C 129 220 139 220 144 220 C 148 182 158 148 168 115 C 177 62 187 14 187 9 C 192 4 182 4 168 4 C 163 4 153 4 148 4 C 144 14 144 24 139 33 M 115 91 C 129 100 129 100 120 139 C 110 177 100 187 76 192 C 48 196 38 172 48 129 C 62 91 91 72 115 91 z" fill="black"/><!-- width=196 height=230 -->
<path id="gl2085" d="M 78 6 C 69 8 66 9 55 15 C 51 18 33 34 33 36 C 33 37 33 38 31 40 C 26 46 28 48 50 49 C 69 50 73 49 73 45 C 73 42 81 32 87 28 C 96 24 107 24 111 30 C 117 33 119 39 117 51 C 115 63 114 66 104 66 C 92 66 64 72 50 78 C 30 86 19 95 14 105 C 12 109 9 114 8 116 C 4 123 6 149 9 155 C 15 164 28 169 51 169 C 62 170 66 169 69 168 C 73 166 75 164 76 164 C 78 164 83 163 86 161 C 96 156 95 156 96 161 C 97 162 97 163 97 164 C 103 164 110 164 116 166 C 139 166 140 166 139 162 C 139 160 138 157 138 155 C 137 151 138 140 141 128 C 141 126 143 120 144 114 C 145 109 146 104 146 103 C 147 102 149 97 149 92 C 149 87 150 83 151 80 C 152 78 153 73 153 68 C 153 64 155 58 156 54 C 161 37 155 18 144 10 C 131 2 99 0 78 6 M 107 84 C 110 86 110 84 107 103 C 105 108 104 113 104 114 C 103 114 102 119 102 122 C 101 134 95 138 74 144 C 63 146 60 146 58 145 C 58 144 56 143 55 143 C 43 140 44 119 56 105 C 60 102 72 93 76 92 C 83 91 96 86 99 85 C 102 84 103 84 103 84 C 103 84 105 84 107 84 z" fill="black"/><!-- width=167 height=178 -->
<path id="gl2087" d="M 43 14 C 28 81 4 196 4 206 C 0 211 4 216 24 211 C 33 211 38 211 48 211 C 48 196 52 187 52 172 C 57 158 57 144 62 129 C 67 129 72 129 76 129 C 91 129 96 134 115 172 C 120 187 129 201 134 216 C 144 216 153 216 163 216 C 196 216 196 216 163 172 C 139 129 139 120 148 120 C 177 120 206 86 206 52 C 206 14 182 0 96 0 C 81 0 62 0 48 0 C 43 4 43 9 43 14 M 158 38 C 172 52 168 81 144 96 C 129 100 72 110 72 100 C 72 100 72 81 76 62 C 81 52 81 43 86 28 C 96 28 105 28 115 28 C 139 28 148 33 158 38 z" fill="black"/><!-- width=220 height=220 -->
<path id="gl2085" d="M 78 6 C 69 8 66 9 55 15 C 51 18 33 34 33 36 C 33 37 33 38 31 40 C 26 46 28 48 50 49 C 69 50 73 49 73 45 C 73 42 81 32 87 28 C 96 24 107 24 111 30 C 117 33 119 39 117 51 C 115 63 114 66 104 66 C 92 66 64 72 50 78 C 30 86 19 95 14 105 C 12 109 9 114 8 116 C 4 123 6 149 9 155 C 15 164 28 169 51 169 C 62 170 66 169 69 168 C 73 166 75 164 76 164 C 78 164 83 163 86 161 C 96 156 95 156 96 161 C 97 162 97 163 97 164 C 103 164 110 164 116 166 C 139 166 140 166 139 162 C 139 160 138 157 138 155 C 137 151 138 140 141 128 C 141 126 143 120 144 114 C 145 109 146 104 146 103 C 147 102 149 97 149 92 C 149 87 150 83 151 80 C 152 78 153 73 153 68 C 153 64 155 58 156 54 C 161 37 155 18 144 10 C 131 2 99 0 78 6 M 107 84 C 110 86 110 84 107 103 C 105 108 104 113 104 114 C 103 114 102 119 102 122 C 101 134 95 138 74 144 C 63 146 60 146 58 145 C 58 144 56 143 55 143 C 43 140 44 119 56 105 C 60 102 72 93 76 92 C 83 91 96 86 99 85 C 102 84 103 84 103 84 C 103 84 105 84 107 84 z" fill="black"/><!-- width=167 height=178 -->
<path id="gl2088" d="M 38 9 C 33 28 33 28 72 28 C 86 24 100 28 100 28 C 100 28 81 52 57 81 C 33 110 9 139 4 148 C 4 153 4 158 0 163 C 24 163 48 163 67 163 C 91 163 115 163 134 163 C 134 158 139 153 139 148 C 139 139 139 139 100 139 C 81 139 67 134 67 134 C 67 134 86 105 115 76 C 177 0 177 0 100 0 C 52 0 43 4 38 9 z" fill="black"/><!-- width=172 height=168 -->
<path id="gl2089" d="M 76 9 C 72 14 72 24 72 24 C 72 33 81 33 86 28 C 91 19 96 19 105 28 C 124 38 134 38 148 24 C 158 14 148 0 134 9 C 129 19 124 19 115 9 C 100 0 86 0 76 9 M 72 52 C 52 57 28 81 28 91 C 28 100 72 96 81 81 C 96 62 115 67 115 91 C 120 105 120 105 96 110 C 43 120 4 144 4 177 C 9 211 48 225 86 206 C 91 201 96 201 96 201 C 96 206 110 206 120 206 C 139 206 144 206 144 192 C 144 182 144 158 148 129 C 163 76 163 62 139 52 C 120 43 96 43 72 52 M 110 134 C 110 139 105 148 105 158 C 100 187 48 201 48 172 C 48 153 62 144 86 134 C 105 124 115 124 110 134 z" fill="black"/><!-- width=168 height=220 -->
<path id="gl2090" d="M 67 9 C 0 33 -15 139 33 163 C 105 192 187 120 168 43 C 158 9 110 -5 67 9 M 115 38 C 139 57 129 110 100 134 C 62 163 33 129 52 72 C 62 33 96 14 115 38 z" fill="black"/><!-- width=182 height=177 -->
<path id="gl2091" d="M 28 96 C 0 230 0 216 28 216 C 33 216 43 216 48 216 C 52 201 52 187 57 177 C 57 163 62 153 62 139 C 76 139 91 139 105 134 C 172 129 206 105 206 52 C 206 14 177 0 96 0 C 81 0 62 0 48 0 C 43 33 33 62 28 96 M 148 38 C 168 52 158 86 134 100 C 115 110 67 110 72 100 C 72 96 76 81 81 62 C 81 52 81 43 86 28 C 96 28 105 28 115 28 C 129 28 144 33 148 38 z" fill="black"/><!-- width=216 height=220 -->
<path id="gl2092" d="M 14 72 C 0 144 0 153 28 163 C 43 168 76 163 91 148 C 105 139 110 139 105 148 C 100 158 105 163 124 163 C 129 163 139 163 144 163 C 148 134 153 105 163 81 C 168 52 172 28 177 0 C 172 0 163 0 158 0 C 134 0 134 0 124 62 C 120 81 115 105 115 110 C 110 124 52 139 48 124 C 43 120 57 52 67 14 C 72 4 67 0 48 0 C 43 0 33 0 28 0 C 24 24 19 48 14 72 z" fill="black"/><!-- width=187 height=172 -->
<path id="gl2093" d="M 91 14 C 76 24 72 24 76 14 C 76 9 72 4 57 4 C 52 4 43 4 38 4 C 33 14 33 24 28 33 C 28 48 19 86 14 115 C 9 129 9 148 4 168 C 9 168 19 168 24 168 C 28 168 38 168 43 168 C 48 158 48 148 48 144 C 52 129 57 105 62 91 C 67 52 86 33 110 38 C 124 38 129 28 129 4 C 129 0 105 0 91 14 M 124 124 C 124 134 124 144 124 148 C 129 158 129 153 129 134 C 129 110 129 105 124 124 z" fill="black"/><!-- width=139 height=172 -->
<path id="gl2094" d="M 57 9 C 38 19 24 38 24 48 C 24 57 62 48 72 38 C 86 19 105 24 105 48 C 105 52 110 57 110 62 C 100 62 91 67 86 67 C 57 72 14 91 9 100 C 0 120 0 158 14 163 C 33 172 52 172 72 163 C 81 158 91 158 91 163 C 91 163 100 168 110 168 C 129 168 129 163 129 153 C 129 148 134 120 139 91 C 153 33 148 14 129 4 C 110 0 76 0 57 9 M 100 91 C 100 96 96 105 96 115 C 91 144 38 158 38 129 C 38 110 48 100 72 91 C 96 81 105 81 100 91 z" fill="black"/><!-- width=158 height=177 -->
</defs>
<use xlink:href="#gl2079" x="0" y="0"/>
<use xlink:href="#gl2080" x="211" y="52"/>
<use xlink:href="#gl2081" x="336" y="9"/>
<use xlink:href="#gl2082" x="437" y="19"/>
<use xlink:href="#gl2083" x="533" y="0"/>
<use xlink:href="#gl2084" x="624" y="52"/>
<use xlink:href="#gl2085" x="794" y="52"/>
<use xlink:href="#gl2086" x="1071" y="0"/>
<use xlink:href="#gl2085" x="1255" y="52"/>
<use xlink:href="#gl2087" x="1531" y="4"/>
<use xlink:href="#gl2085" x="1744" y="52"/>
<use xlink:href="#gl2088" x="1911" y="57"/>
<use xlink:href="#gl2089" x="2074" y="9"/>
<use xlink:href="#gl2090" x="2256" y="52"/>
<use xlink:href="#gl2091" x="2530" y="4"/>
<use xlink:href="#gl2092" x="2741" y="57"/>
<use xlink:href="#gl2093" x="2919" y="52"/>
<use xlink:href="#gl2094" x="3048" y="52"/>
</svg>
