<?xml version='1.0' encoding='utf-8'?>
<svg xmlns="http://www.w3.org/2000/svg" xmlns:xlink="http://www.w3.org/1999/xlink" width="231px" height="20px" viewBox="0 0 2313 202" version="1.1">
<defs>
<path id="gl6406" d="M 7 3 C 6 4 6 6 6 14 C 8 26 8 168 6 182 C 4 195 3 195 30 194 C 37 194 43 194 50 194 C 50 186 50 176 50 166 C 49 152 49 138 49 134 C 48 126 48 126 74 126 C 93 127 98 126 106 124 C 111 122 116 122 117 122 C 127 121 145 108 152 94 C 162 75 159 39 148 26 C 138 14 128 9 109 6 C 97 2 10 1 7 3 M 94 33 C 109 39 112 46 112 64 C 112 76 112 78 110 82 C 106 87 100 93 97 93 C 97 93 94 94 92 96 C 88 98 51 99 50 98 C 49 96 49 33 50 31 C 51 30 87 31 94 33 z" fill="black"/><!-- width=169 height=202 -->
<path id="gl6407" d="M 66 3 C 64 4 62 12 57 25 C 56 30 55 36 54 38 C 52 40 51 45 50 49 C 49 52 48 57 48 58 C 43 72 42 74 40 79 C 39 81 38 86 38 87 C 31 108 26 120 26 122 C 26 123 26 127 25 129 C 22 132 21 135 21 136 C 21 138 21 141 20 144 C 18 146 18 150 18 151 C 18 152 16 156 14 159 C 13 162 13 164 13 165 C 13 168 12 170 10 174 C 6 184 2 193 3 193 C 3 194 14 194 27 194 C 34 194 43 194 50 194 C 50 193 51 192 51 190 C 52 189 54 183 55 178 C 56 172 57 166 57 164 C 58 162 60 157 60 154 C 60 145 58 145 96 145 C 133 145 130 145 133 158 C 133 162 134 166 134 168 C 135 169 136 174 136 178 C 138 183 139 189 140 190 C 140 192 141 193 141 194 C 148 194 157 194 164 194 C 190 195 192 194 187 187 C 186 184 186 181 186 181 C 186 180 184 176 183 174 C 181 169 177 162 175 151 C 172 142 169 134 168 130 C 166 128 165 124 165 122 C 164 121 164 117 163 115 C 162 114 160 110 160 109 C 160 106 158 102 157 98 C 153 87 152 84 151 79 C 150 75 148 70 147 67 C 146 63 144 58 142 55 C 141 51 140 45 138 39 C 135 31 133 24 129 10 C 128 7 127 3 126 3 C 123 2 66 2 66 3 M 99 32 C 99 34 100 39 102 40 C 103 43 104 48 104 51 C 104 54 105 58 106 60 C 108 62 109 66 109 68 C 109 70 109 75 110 79 C 112 81 114 86 114 87 C 114 90 114 93 116 96 C 118 103 120 115 117 117 C 116 118 75 118 74 117 C 72 115 73 102 75 96 C 78 93 79 90 79 87 C 79 86 79 81 80 78 C 82 74 84 69 84 67 C 84 64 84 61 85 58 C 86 57 87 52 87 48 C 88 43 90 39 90 38 C 91 38 92 36 92 34 C 92 32 94 27 96 27 C 97 27 98 28 99 32 z" fill="black"/><!-- width=196 height=201 -->
<path id="gl4366" d="M 3 2 C 3 2 3 45 3 98 C 3 130 3 162 3 194 C 10 194 18 194 24 194 C 50 195 49 195 48 183 C 45 158 44 124 46 123 C 51 117 69 120 73 126 C 75 128 76 130 78 132 C 78 132 79 134 80 135 C 84 141 84 142 99 165 C 106 176 112 187 112 187 C 112 188 115 189 116 192 C 117 192 117 193 118 194 C 128 194 138 194 146 194 C 178 195 178 194 171 187 C 159 174 154 168 147 159 C 142 153 138 147 138 146 C 136 145 133 142 132 140 C 129 136 124 132 121 128 C 112 118 114 112 126 112 C 128 112 130 111 133 110 C 135 108 138 108 139 108 C 141 108 154 94 156 91 C 156 90 157 87 158 86 C 159 85 165 67 165 62 C 165 57 159 38 157 33 C 153 27 142 18 136 14 C 126 9 121 7 115 7 C 110 6 104 4 102 3 C 99 3 4 1 3 2 M 94 33 C 98 34 100 34 102 34 C 104 34 112 42 115 46 C 118 54 120 73 116 78 C 114 79 112 80 112 81 C 112 82 105 88 104 88 C 103 88 102 90 99 91 C 98 92 96 92 93 93 C 88 94 49 94 46 93 C 44 91 45 33 48 32 C 51 30 87 31 94 33 z" fill="black"/><!-- width=182 height=201 -->
<path id="gl4365" d="M 4 3 C 2 3 1 26 3 30 C 4 32 18 32 43 31 C 57 30 60 31 60 39 C 60 43 58 78 58 117 C 57 157 57 190 56 190 C 55 194 61 195 81 194 C 88 194 96 194 103 194 C 103 190 103 188 103 184 C 102 114 103 32 103 31 C 104 30 115 30 144 32 C 157 33 158 33 158 16 C 158 8 157 3 156 3 C 154 2 8 2 4 3 z" fill="black"/><!-- width=168 height=201 -->
<path id="gl6408" d="M 7 3 C 6 4 6 6 6 14 C 8 26 8 170 6 182 C 6 187 6 192 6 193 C 7 194 146 194 148 193 C 151 192 150 166 147 165 C 146 164 126 164 98 164 C 73 165 51 165 50 165 C 50 164 49 152 49 139 C 49 110 49 110 57 111 C 73 112 120 114 121 111 C 123 110 123 87 121 84 C 120 82 117 81 86 82 C 64 84 51 84 50 84 C 49 81 49 33 50 31 C 51 31 72 31 98 32 C 133 32 145 32 146 31 C 146 30 146 24 146 15 C 146 12 146 7 146 2 C 123 2 100 2 78 2 C 31 2 8 2 7 3 z" fill="black"/><!-- width=159 height=202 -->
<path id="gl6406" d="M 7 3 C 6 4 6 6 6 14 C 8 26 8 168 6 182 C 4 195 3 195 30 194 C 37 194 43 194 50 194 C 50 186 50 176 50 166 C 49 152 49 138 49 134 C 48 126 48 126 74 126 C 93 127 98 126 106 124 C 111 122 116 122 117 122 C 127 121 145 108 152 94 C 162 75 159 39 148 26 C 138 14 128 9 109 6 C 97 2 10 1 7 3 M 94 33 C 109 39 112 46 112 64 C 112 76 112 78 110 82 C 106 87 100 93 97 93 C 97 93 94 94 92 96 C 88 98 51 99 50 98 C 49 96 49 33 50 31 C 51 30 87 31 94 33 z" fill="black"/><!-- width=169 height=202 -->
<path id="gl4366" d="M 3 2 C 3 2 3 45 3 98 C 3 130 3 162 3 194 C 10 194 18 194 24 194 C 50 195 49 195 48 183 C 45 158 44 124 46 123 C 51 117 69 120 73 126 C 75 128 76 130 78 132 C 78 132 79 134 80 135 C 84 141 84 142 99 165 C 106 176 112 187 112 187 C 112 188 115 189 116 192 C 117 192 117 193 118 194 C 128 194 138 194 146 194 C 178 195 178 194 171 187 C 159 174 154 168 147 159 C 142 153 138 147 138 146 C 136 145 133 142 132 140 C 129 136 124 132 121 128 C 112 118 114 112 126 112 C 128 112 130 111 133 110 C 135 108 138 108 139 108 C 141 108 154 94 156 91 C 156 90 157 87 158 86 C 159 85 165 67 165 62 C 165 57 159 38 157 33 C 153 27 142 18 136 14 C 126 9 121 7 115 7 C 110 6 104 4 102 3 C 99 3 4 1 3 2 M 94 33 C 98 34 100 34 102 34 C 104 34 112 42 115 46 C 118 54 120 73 116 78 C 114 79 112 80 112 81 C 112 82 105 88 104 88 C 103 88 102 90 99 91 C 98 92 96 92 93 93 C 88 94 49 94 46 93 C 44 91 45 33 48 32 C 51 30 87 31 94 33 z" fill="black"/><!-- width=182 height=201 -->
<path id="gl4363" d="M 4 2 C 3 2 3 45 3 98 C 3 130 3 162 3 194 C 10 194 18 194 25 194 C 50 194 49 195 48 181 C 45 168 45 28 48 15 C 48 8 48 4 48 3 C 46 2 4 1 4 2 z" fill="black"/><!-- width=57 height=201 -->
<path id="gl6409" d="M 7 3 C 4 4 4 6 6 15 C 8 30 8 163 6 180 C 4 195 3 195 27 195 C 37 195 45 194 45 194 C 45 193 44 124 43 74 C 43 64 42 55 42 46 C 43 46 44 46 45 46 C 49 46 50 48 51 57 C 51 61 52 66 54 68 C 55 69 56 74 56 78 C 56 81 57 85 58 85 C 58 86 60 90 61 94 C 61 98 62 104 63 106 C 64 109 64 112 64 115 C 64 116 66 121 67 124 C 69 128 69 133 69 135 C 69 136 70 141 72 145 C 75 156 76 163 79 174 C 81 184 82 190 85 193 C 86 195 124 195 126 193 C 128 190 130 180 132 174 C 132 170 133 166 133 165 C 134 165 135 160 135 156 C 136 151 138 146 138 146 C 139 145 140 140 140 135 C 141 130 142 127 144 126 C 144 124 145 120 145 116 C 146 111 147 106 147 105 C 148 104 150 100 150 96 C 151 91 152 87 152 86 C 153 86 154 81 154 78 C 154 74 156 69 157 67 C 158 66 159 62 159 58 C 160 48 162 44 165 45 C 168 45 168 54 166 105 C 166 118 165 145 165 163 C 165 172 165 183 165 194 C 171 194 177 194 184 194 C 208 195 207 195 206 178 C 204 162 204 31 206 16 C 206 8 206 4 206 3 C 204 2 140 1 138 3 C 136 3 135 6 135 8 C 135 10 135 14 134 15 C 134 18 133 22 132 27 C 132 31 130 37 129 39 C 128 42 127 45 127 46 C 127 48 127 52 126 56 C 124 60 122 67 122 70 C 121 74 120 80 120 84 C 117 90 116 99 114 114 C 112 118 111 124 111 126 C 110 127 109 130 109 134 C 108 144 103 144 102 133 C 100 129 100 126 99 124 C 99 123 98 118 97 112 C 96 108 94 100 94 98 C 93 96 92 92 92 90 C 92 87 92 82 91 79 C 88 74 88 69 88 67 C 88 64 87 62 86 60 C 85 58 84 54 84 51 C 84 48 82 42 81 36 C 75 16 74 12 74 8 C 74 6 74 3 73 3 C 70 2 8 2 7 3 z" fill="black"/><!-- width=216 height=201 -->
<path id="gl6408" d="M 7 3 C 6 4 6 6 6 14 C 8 26 8 170 6 182 C 6 187 6 192 6 193 C 7 194 146 194 148 193 C 151 192 150 166 147 165 C 146 164 126 164 98 164 C 73 165 51 165 50 165 C 50 164 49 152 49 139 C 49 110 49 110 57 111 C 73 112 120 114 121 111 C 123 110 123 87 121 84 C 120 82 117 81 86 82 C 64 84 51 84 50 84 C 49 81 49 33 50 31 C 51 31 72 31 98 32 C 133 32 145 32 146 31 C 146 30 146 24 146 15 C 146 12 146 7 146 2 C 123 2 100 2 78 2 C 31 2 8 2 7 3 z" fill="black"/><!-- width=159 height=202 -->
<path id="gl4363" d="M 4 2 C 3 2 3 45 3 98 C 3 130 3 162 3 194 C 10 194 18 194 25 194 C 50 194 49 195 48 181 C 45 168 45 28 48 15 C 48 8 48 4 48 3 C 46 2 4 1 4 2 z" fill="black"/><!-- width=57 height=201 -->
<path id="gl4366" d="M 3 2 C 3 2 3 45 3 98 C 3 130 3 162 3 194 C 10 194 18 194 24 194 C 50 195 49 195 48 183 C 45 158 44 124 46 123 C 51 117 69 120 73 126 C 75 128 76 130 78 132 C 78 132 79 134 80 135 C 84 141 84 142 99 165 C 106 176 112 187 112 187 C 112 188 115 189 116 192 C 117 192 117 193 118 194 C 128 194 138 194 146 194 C 178 195 178 194 171 187 C 159 174 154 168 147 159 C 142 153 138 147 138 146 C 136 145 133 142 132 140 C 129 136 124 132 121 128 C 112 118 114 112 126 112 C 128 112 130 111 133 110 C 135 108 138 108 139 108 C 141 108 154 94 156 91 C 156 90 157 87 158 86 C 159 85 165 67 165 62 C 165 57 159 38 157 33 C 153 27 142 18 136 14 C 126 9 121 7 115 7 C 110 6 104 4 102 3 C 99 3 4 1 3 2 M 94 33 C 98 34 100 34 102 34 C 104 34 112 42 115 46 C 118 54 120 73 116 78 C 114 79 112 80 112 81 C 112 82 105 88 104 88 C 103 88 102 90 99 91 C 98 92 96 92 93 93 C 88 94 49 94 46 93 C 44 91 45 33 48 32 C 51 30 87 31 94 33 z" fill="black"/><!-- width=182 height=201 -->
<path id="gl6407" d="M 66 3 C 64 4 62 12 57 25 C 56 30 55 36 54 38 C 52 40 51 45 50 49 C 49 52 48 57 48 58 C 43 72 42 74 40 79 C 39 81 38 86 38 87 C 31 108 26 120 26 122 C 26 123 26 127 25 129 C 22 132 21 135 21 136 C 21 138 21 141 20 144 C 18 146 18 150 18 151 C 18 152 16 156 14 159 C 13 162 13 164 13 165 C 13 168 12 170 10 174 C 6 184 2 193 3 193 C 3 194 14 194 27 194 C 34 194 43 194 50 194 C 50 193 51 192 51 190 C 52 189 54 183 55 178 C 56 172 57 166 57 164 C 58 162 60 157 60 154 C 60 145 58 145 96 145 C 133 145 130 145 133 158 C 133 162 134 166 134 168 C 135 169 136 174 136 178 C 138 183 139 189 140 190 C 140 192 141 193 141 194 C 148 194 157 194 164 194 C 190 195 192 194 187 187 C 186 184 186 181 186 181 C 186 180 184 176 183 174 C 181 169 177 162 175 151 C 172 142 169 134 168 130 C 166 128 165 124 165 122 C 164 121 164 117 163 115 C 162 114 160 110 160 109 C 160 106 158 102 157 98 C 153 87 152 84 151 79 C 150 75 148 70 147 67 C 146 63 144 58 142 55 C 141 51 140 45 138 39 C 135 31 133 24 129 10 C 128 7 127 3 126 3 C 123 2 66 2 66 3 M 99 32 C 99 34 100 39 102 40 C 103 43 104 48 104 51 C 104 54 105 58 106 60 C 108 62 109 66 109 68 C 109 70 109 75 110 79 C 112 81 114 86 114 87 C 114 90 114 93 116 96 C 118 103 120 115 117 117 C 116 118 75 118 74 117 C 72 115 73 102 75 96 C 78 93 79 90 79 87 C 79 86 79 81 80 78 C 82 74 84 69 84 67 C 84 64 84 61 85 58 C 86 57 87 52 87 48 C 88 43 90 39 90 38 C 91 38 92 36 92 34 C 92 32 94 27 96 27 C 97 27 98 28 99 32 z" fill="black"/><!-- width=196 height=201 -->
</defs>
<use xlink:href="#gl6406" x="0" y="0"/>
<use xlink:href="#gl6407" x="173" y="0"/>
<use xlink:href="#gl4366" x="384" y="0"/>
<use xlink:href="#gl4365" x="566" y="0"/>
<use xlink:href="#gl6408" x="749" y="0"/>
<use xlink:href="#gl6406" x="984" y="0"/>
<use xlink:href="#gl4366" x="1171" y="0"/>
<use xlink:href="#gl4363" x="1363" y="0"/>
<use xlink:href="#gl6409" x="1435" y="0"/>
<use xlink:href="#gl6408" x="1675" y="0"/>
<use xlink:href="#gl4363" x="1853" y="0"/>
<use xlink:href="#gl4366" x="1934" y="0"/>
<use xlink:href="#gl6407" x="2117" y="0"/>
</svg>
