<?xml version='1.0' encoding='utf-8'?>
<svg xmlns="http://www.w3.org/2000/svg" xmlns:xlink="http://www.w3.org/1999/xlink" width="158px" height="21px" viewBox="0 0 1588 212" version="1.1">
<defs>
<path id="gl6412" d="M 67 6 C 48 10 28 24 21 36 C 16 43 12 52 12 54 C 12 55 12 57 10 58 C 9 60 8 66 7 72 C 7 78 6 84 4 85 C 3 87 3 115 4 121 C 6 122 7 129 7 134 C 8 140 9 146 10 147 C 12 150 12 152 12 153 C 12 158 22 174 31 182 C 36 187 45 194 46 194 C 48 194 50 194 52 195 C 67 202 103 206 114 201 C 116 200 120 199 122 199 C 124 199 129 196 133 195 C 135 193 140 190 141 189 C 150 186 163 171 168 162 C 170 157 174 153 174 151 C 177 145 177 140 174 139 C 171 138 151 135 138 134 C 133 134 132 135 128 147 C 124 158 116 168 108 172 C 102 175 82 175 81 174 C 81 172 79 171 76 170 C 72 169 58 158 58 154 C 58 153 58 152 56 150 C 55 148 54 146 54 145 C 54 144 54 141 52 140 C 48 129 48 76 52 67 C 54 64 54 62 54 61 C 54 60 55 57 56 55 C 58 54 58 52 58 51 C 58 48 72 37 76 34 C 79 34 81 33 81 33 C 82 30 103 31 110 34 C 117 38 128 49 128 55 C 128 55 129 58 130 62 C 130 64 132 67 133 69 C 135 68 138 68 140 68 C 144 68 152 67 158 67 C 163 67 170 66 172 64 C 174 64 175 64 177 63 C 176 62 176 61 176 58 C 175 49 165 33 157 25 C 152 20 141 13 140 13 C 139 13 136 12 134 10 C 121 2 86 0 67 6 z" fill="black"/><!-- width=187 height=211 -->
<path id="gl6407" d="M 66 3 C 64 4 62 12 57 25 C 56 30 55 36 54 38 C 52 40 51 45 50 49 C 49 52 48 57 48 58 C 43 72 42 74 40 79 C 39 81 38 86 38 87 C 31 108 26 120 26 122 C 26 123 26 127 25 129 C 22 132 21 135 21 136 C 21 138 21 141 20 144 C 18 146 18 150 18 151 C 18 152 16 156 14 159 C 13 162 13 164 13 165 C 13 168 12 170 10 174 C 6 184 2 193 3 193 C 3 194 14 194 27 194 C 34 194 43 194 50 194 C 50 193 51 192 51 190 C 52 189 54 183 55 178 C 56 172 57 166 57 164 C 58 162 60 157 60 154 C 60 145 58 145 96 145 C 133 145 130 145 133 158 C 133 162 134 166 134 168 C 135 169 136 174 136 178 C 138 183 139 189 140 190 C 140 192 141 193 141 194 C 148 194 157 194 164 194 C 190 195 192 194 187 187 C 186 184 186 181 186 181 C 186 180 184 176 183 174 C 181 169 177 162 175 151 C 172 142 169 134 168 130 C 166 128 165 124 165 122 C 164 121 164 117 163 115 C 162 114 160 110 160 109 C 160 106 158 102 157 98 C 153 87 152 84 151 79 C 150 75 148 70 147 67 C 146 63 144 58 142 55 C 141 51 140 45 138 39 C 135 31 133 24 129 10 C 128 7 127 3 126 3 C 123 2 66 2 66 3 M 99 32 C 99 34 100 39 102 40 C 103 43 104 48 104 51 C 104 54 105 58 106 60 C 108 62 109 66 109 68 C 109 70 109 75 110 79 C 112 81 114 86 114 87 C 114 90 114 93 116 96 C 118 103 120 115 117 117 C 116 118 75 118 74 117 C 72 115 73 102 75 96 C 78 93 79 90 79 87 C 79 86 79 81 80 78 C 82 74 84 69 84 67 C 84 64 84 61 85 58 C 86 57 87 52 87 48 C 88 43 90 39 90 38 C 91 38 92 36 92 34 C 92 32 94 27 96 27 C 97 27 98 28 99 32 z" fill="black"/><!-- width=196 height=201 -->
<path id="gl6406" d="M 7 3 C 6 4 6 6 6 14 C 8 26 8 168 6 182 C 4 195 3 195 30 194 C 37 194 43 194 50 194 C 50 186 50 176 50 166 C 49 152 49 138 49 134 C 48 126 48 126 74 126 C 93 127 98 126 106 124 C 111 122 116 122 117 122 C 127 121 145 108 152 94 C 162 75 159 39 148 26 C 138 14 128 9 109 6 C 97 2 10 1 7 3 M 94 33 C 109 39 112 46 112 64 C 112 76 112 78 110 82 C 106 87 100 93 97 93 C 97 93 94 94 92 96 C 88 98 51 99 50 98 C 49 96 49 33 50 31 C 51 30 87 31 94 33 z" fill="black"/><!-- width=169 height=202 -->
<path id="gl4363" d="M 4 2 C 3 2 3 45 3 98 C 3 130 3 162 3 194 C 10 194 18 194 25 194 C 50 194 49 195 48 181 C 45 168 45 28 48 15 C 48 8 48 4 48 3 C 46 2 4 1 4 2 z" fill="black"/><!-- width=57 height=201 -->
<path id="gl4365" d="M 4 3 C 2 3 1 26 3 30 C 4 32 18 32 43 31 C 57 30 60 31 60 39 C 60 43 58 78 58 117 C 57 157 57 190 56 190 C 55 194 61 195 81 194 C 88 194 96 194 103 194 C 103 190 103 188 103 184 C 102 114 103 32 103 31 C 104 30 115 30 144 32 C 157 33 158 33 158 16 C 158 8 157 3 156 3 C 154 2 8 2 4 3 z" fill="black"/><!-- width=168 height=201 -->
<path id="gl4369" d="M 8 3 C 7 4 7 134 8 142 C 15 184 34 198 86 198 C 124 198 145 189 157 169 C 159 164 160 162 164 151 C 164 147 165 126 165 97 C 165 69 165 37 165 26 C 166 10 166 4 165 3 C 165 2 159 2 144 2 C 136 2 129 2 122 2 C 122 26 122 50 122 74 C 122 140 122 146 120 150 C 118 152 117 153 117 154 C 117 157 108 165 104 166 C 103 166 100 168 100 169 C 99 171 73 170 67 166 C 61 164 55 157 55 154 C 55 153 54 152 52 150 C 50 146 50 140 50 74 C 50 50 50 26 50 2 C 43 2 36 2 30 2 C 15 2 8 2 8 3 z" fill="black"/><!-- width=178 height=207 -->
<path id="gl6410" d="M 4 2 C 3 2 3 45 3 98 C 3 130 3 162 3 194 C 26 194 49 194 72 194 C 109 194 140 194 140 193 C 141 192 140 166 139 165 C 138 164 127 164 94 164 C 70 165 50 165 49 165 C 45 164 45 159 45 135 C 46 122 46 90 46 64 C 48 38 48 14 48 10 C 49 4 49 3 46 3 C 45 2 4 1 4 2 z" fill="black"/><!-- width=150 height=202 -->
<path id="gl4367" d="M 68 6 C 63 7 57 9 56 9 C 55 10 50 12 48 14 C 32 21 13 45 13 56 C 13 58 12 61 10 63 C 4 74 4 132 10 142 C 12 145 13 147 13 148 C 13 159 32 184 44 189 C 45 190 48 192 48 192 C 52 194 61 199 66 199 C 68 200 73 201 76 202 C 94 207 133 201 147 192 C 148 192 151 190 153 189 C 160 187 176 170 181 159 C 198 121 194 62 172 33 C 165 24 158 19 150 14 C 145 12 141 10 140 9 C 139 9 134 8 132 7 C 128 6 122 4 121 3 C 111 2 80 2 68 6 M 112 34 C 117 36 121 37 122 38 C 122 39 124 39 124 39 C 126 39 130 44 134 50 C 136 54 141 63 142 68 C 142 70 144 74 145 74 C 146 76 147 116 146 124 C 140 150 133 162 120 169 C 116 170 111 172 110 174 C 109 174 104 174 98 174 C 92 174 87 174 86 174 C 85 172 80 170 76 169 C 70 165 68 163 62 156 C 57 151 54 140 50 126 C 49 120 49 86 50 80 C 54 68 58 55 62 50 C 74 33 94 27 112 34 z" fill="black"/><!-- width=202 height=212 -->
<path id="gl4363" d="M 4 2 C 3 2 3 45 3 98 C 3 130 3 162 3 194 C 10 194 18 194 25 194 C 50 194 49 195 48 181 C 45 168 45 28 48 15 C 48 8 48 4 48 3 C 46 2 4 1 4 2 z" fill="black"/><!-- width=57 height=201 -->
<path id="gl4363" d="M 4 2 C 3 2 3 45 3 98 C 3 130 3 162 3 194 C 10 194 18 194 25 194 C 50 194 49 195 48 181 C 45 168 45 28 48 15 C 48 8 48 4 48 3 C 46 2 4 1 4 2 z" fill="black"/><!-- width=57 height=201 -->
</defs>
<use xlink:href="#gl6412" x="0" y="0"/>
<use xlink:href="#gl6407" x="187" y="5"/>
<use xlink:href="#gl6406" x="394" y="5"/>
<use xlink:href="#gl4363" x="571" y="5"/>
<use xlink:href="#gl4365" x="639" y="5"/>
<use xlink:href="#gl4369" x="811" y="5"/>
<use xlink:href="#gl6410" x="1013" y="5"/>
<use xlink:href="#gl4367" x="1166" y="0"/>
<use xlink:href="#gl4363" x="1459" y="5"/>
<use xlink:href="#gl4363" x="1531" y="5"/>
</svg>
