<?xml version='1.0' encoding='utf-8'?>
<svg xmlns="http://www.w3.org/2000/svg" xmlns:xlink="http://www.w3.org/1999/xlink" width="184px" height="30px" viewBox="0 0 1844 303" version="1.1">
<defs>
<path id="gl4363" d="M 4 2 C 3 2 3 45 3 98 C 3 130 3 162 3 194 C 10 194 18 194 25 194 C 50 194 49 195 48 181 C 45 168 45 28 48 15 C 48 8 48 4 48 3 C 46 2 4 1 4 2 z" fill="black"/><!-- width=57 height=201 -->
<path id="gl4364" d="M 7 3 C 6 4 6 6 6 14 C 8 27 8 168 6 181 C 4 195 4 195 27 195 C 37 195 45 194 45 194 C 45 193 44 121 43 76 C 42 63 42 52 42 51 C 43 50 50 58 51 63 C 51 66 52 69 54 70 C 55 72 56 75 56 78 C 56 80 57 82 58 82 C 58 82 60 84 61 87 C 61 90 62 92 63 93 C 63 94 64 97 66 100 C 69 112 73 120 78 129 C 79 132 80 134 80 135 C 80 136 82 142 87 152 C 88 154 88 157 88 158 C 88 159 90 162 91 164 C 96 172 97 177 98 181 C 99 182 100 186 102 189 C 103 190 103 192 104 194 C 114 194 124 194 134 194 C 150 194 164 194 164 193 C 165 192 165 4 164 2 C 163 1 127 1 124 3 C 123 4 123 6 124 13 C 126 22 128 96 128 123 C 128 146 124 153 121 138 C 121 135 120 133 118 132 C 117 130 116 128 116 126 C 116 122 115 120 114 118 C 112 118 111 116 111 112 C 111 110 110 109 109 109 C 109 109 108 106 106 104 C 106 100 105 97 104 96 C 103 93 102 91 102 90 C 102 88 102 86 99 84 C 98 81 98 79 98 79 C 98 78 97 74 96 72 C 93 69 93 67 93 66 C 93 66 92 62 90 60 C 88 56 86 51 86 49 C 85 46 82 42 81 38 C 79 36 78 32 78 32 C 78 31 78 28 75 26 C 74 24 73 20 73 19 C 73 18 73 16 72 16 C 72 16 70 13 69 10 C 69 7 68 4 67 3 C 64 2 9 1 7 3 z" fill="black"/><!-- width=172 height=201 -->
<path id="gl4365" d="M 4 3 C 2 3 1 26 3 30 C 4 32 18 32 43 31 C 57 30 60 31 60 39 C 60 43 58 78 58 117 C 57 157 57 190 56 190 C 55 194 61 195 81 194 C 88 194 96 194 103 194 C 103 190 103 188 103 184 C 102 114 103 32 103 31 C 104 30 115 30 144 32 C 157 33 158 33 158 16 C 158 8 157 3 156 3 C 154 2 8 2 4 3 z" fill="black"/><!-- width=168 height=201 -->
<path id="gl4366" d="M 3 2 C 3 2 3 45 3 98 C 3 130 3 162 3 194 C 10 194 18 194 24 194 C 50 195 49 195 48 183 C 45 158 44 124 46 123 C 51 117 69 120 73 126 C 75 128 76 130 78 132 C 78 132 79 134 80 135 C 84 141 84 142 99 165 C 106 176 112 187 112 187 C 112 188 115 189 116 192 C 117 192 117 193 118 194 C 128 194 138 194 146 194 C 178 195 178 194 171 187 C 159 174 154 168 147 159 C 142 153 138 147 138 146 C 136 145 133 142 132 140 C 129 136 124 132 121 128 C 112 118 114 112 126 112 C 128 112 130 111 133 110 C 135 108 138 108 139 108 C 141 108 154 94 156 91 C 156 90 157 87 158 86 C 159 85 165 67 165 62 C 165 57 159 38 157 33 C 153 27 142 18 136 14 C 126 9 121 7 115 7 C 110 6 104 4 102 3 C 99 3 4 1 3 2 M 94 33 C 98 34 100 34 102 34 C 104 34 112 42 115 46 C 118 54 120 73 116 78 C 114 79 112 80 112 81 C 112 82 105 88 104 88 C 103 88 102 90 99 91 C 98 92 96 92 93 93 C 88 94 49 94 46 93 C 44 91 45 33 48 32 C 51 30 87 31 94 33 z" fill="black"/><!-- width=182 height=201 -->
<path id="gl4367" d="M 68 6 C 63 7 57 9 56 9 C 55 10 50 12 48 14 C 32 21 13 45 13 56 C 13 58 12 61 10 63 C 4 74 4 132 10 142 C 12 145 13 147 13 148 C 13 159 32 184 44 189 C 45 190 48 192 48 192 C 52 194 61 199 66 199 C 68 200 73 201 76 202 C 94 207 133 201 147 192 C 148 192 151 190 153 189 C 160 187 176 170 181 159 C 198 121 194 62 172 33 C 165 24 158 19 150 14 C 145 12 141 10 140 9 C 139 9 134 8 132 7 C 128 6 122 4 121 3 C 111 2 80 2 68 6 M 112 34 C 117 36 121 37 122 38 C 122 39 124 39 124 39 C 126 39 130 44 134 50 C 136 54 141 63 142 68 C 142 70 144 74 145 74 C 146 76 147 116 146 124 C 140 150 133 162 120 169 C 116 170 111 172 110 174 C 109 174 104 174 98 174 C 92 174 87 174 86 174 C 85 172 80 170 76 169 C 70 165 68 163 62 156 C 57 151 54 140 50 126 C 49 120 49 86 50 80 C 54 68 58 55 62 50 C 74 33 94 27 112 34 z" fill="black"/><!-- width=202 height=212 -->
<path id="gl4368" d="M 7 3 C 6 4 6 6 6 14 C 8 26 8 170 6 182 C 6 188 6 192 6 193 C 7 194 22 194 54 194 C 100 193 117 192 126 187 C 127 186 129 184 132 183 C 158 172 172 144 172 97 C 172 56 163 33 140 18 C 135 14 130 12 129 12 C 127 10 124 10 123 9 C 122 8 118 7 116 7 C 112 7 108 6 104 4 C 98 2 9 1 7 3 M 93 33 C 109 38 117 48 124 67 C 127 75 128 111 127 121 C 124 132 122 140 120 142 C 118 142 118 145 118 146 C 118 148 103 162 99 162 C 98 162 96 162 93 163 C 90 165 51 166 50 165 C 49 163 49 33 50 31 C 51 30 84 31 93 33 z" fill="black"/><!-- width=182 height=201 -->
<path id="gl4369" d="M 8 3 C 7 4 7 134 8 142 C 15 184 34 198 86 198 C 124 198 145 189 157 169 C 159 164 160 162 164 151 C 164 147 165 126 165 97 C 165 69 165 37 165 26 C 166 10 166 4 165 3 C 165 2 159 2 144 2 C 136 2 129 2 122 2 C 122 26 122 50 122 74 C 122 140 122 146 120 150 C 118 152 117 153 117 154 C 117 157 108 165 104 166 C 103 166 100 168 100 169 C 99 171 73 170 67 166 C 61 164 55 157 55 154 C 55 153 54 152 52 150 C 50 146 50 140 50 74 C 50 50 50 26 50 2 C 43 2 36 2 30 2 C 15 2 8 2 8 3 z" fill="black"/><!-- width=178 height=207 -->
<path id="gl4370" d="M 52 9 C -15 43 -5 177 62 196 C 76 201 76 206 76 211 C 72 220 76 225 86 225 C 96 225 100 225 96 230 C 96 230 86 235 76 235 C 48 235 43 249 72 254 C 120 259 153 230 110 216 C 96 211 100 206 120 196 C 144 192 177 163 177 148 C 177 134 134 129 129 144 C 115 182 76 187 57 148 C 48 129 48 76 57 52 C 76 24 110 24 124 52 C 134 72 139 72 163 67 C 177 62 177 57 163 33 C 144 4 91 0 52 9 z" fill="black"/><!-- width=187 height=264 -->
<path id="gl4371" d="M 52 14 C 43 24 52 43 67 28 C 72 28 76 24 91 28 C 120 38 124 38 139 24 C 148 14 139 0 120 9 C 115 14 110 14 96 9 C 72 0 67 0 52 14 M 38 134 C 19 182 4 225 4 230 C 0 235 4 240 28 235 C 33 235 43 235 52 235 C 52 225 57 220 57 211 C 57 206 57 196 62 192 C 72 192 86 192 96 192 C 105 192 120 192 129 192 C 134 196 134 206 134 211 C 134 220 134 230 139 240 C 148 240 153 240 163 240 C 177 240 187 235 187 235 C 187 230 172 187 158 139 C 148 105 134 76 124 48 C 115 48 105 48 96 48 C 86 48 76 48 67 48 C 57 76 48 105 38 134 M 110 115 C 115 129 120 144 120 163 C 115 163 105 163 96 163 C 86 163 76 163 72 163 C 72 148 76 134 81 120 C 86 96 96 76 96 72 C 96 57 100 76 110 115 z" fill="black"/><!-- width=196 height=244 -->
<path id="gl4367" d="M 68 6 C 63 7 57 9 56 9 C 55 10 50 12 48 14 C 32 21 13 45 13 56 C 13 58 12 61 10 63 C 4 74 4 132 10 142 C 12 145 13 147 13 148 C 13 159 32 184 44 189 C 45 190 48 192 48 192 C 52 194 61 199 66 199 C 68 200 73 201 76 202 C 94 207 133 201 147 192 C 148 192 151 190 153 189 C 160 187 176 170 181 159 C 198 121 194 62 172 33 C 165 24 158 19 150 14 C 145 12 141 10 140 9 C 139 9 134 8 132 7 C 128 6 122 4 121 3 C 111 2 80 2 68 6 M 112 34 C 117 36 121 37 122 38 C 122 39 124 39 124 39 C 126 39 130 44 134 50 C 136 54 141 63 142 68 C 142 70 144 74 145 74 C 146 76 147 116 146 124 C 140 150 133 162 120 169 C 116 170 111 172 110 174 C 109 174 104 174 98 174 C 92 174 87 174 86 174 C 85 172 80 170 76 169 C 70 165 68 163 62 156 C 57 151 54 140 50 126 C 49 120 49 86 50 80 C 54 68 58 55 62 50 C 74 33 94 27 112 34 z" fill="black"/><!-- width=202 height=212 -->
</defs>
<use xlink:href="#gl4363" x="0" y="43"/>
<use xlink:href="#gl4364" x="77" y="43"/>
<use xlink:href="#gl4365" x="264" y="43"/>
<use xlink:href="#gl4366" x="446" y="43"/>
<use xlink:href="#gl4367" x="633" y="39"/>
<use xlink:href="#gl4368" x="854" y="43"/>
<use xlink:href="#gl4369" x="1051" y="43"/>
<use xlink:href="#gl4370" x="1243" y="39"/>
<use xlink:href="#gl4371" x="1435" y="0"/>
<use xlink:href="#gl4367" x="1642" y="39"/>
</svg>
