<?xml version='1.0' encoding='utf-8'?>
<svg xmlns="http://www.w3.org/2000/svg" xmlns:xlink="http://www.w3.org/1999/xlink" width="191px" height="21px" viewBox="0 0 1910 217" version="1.1">
<defs>
<path id="gl6410" d="M 4 2 C 3 2 3 45 3 98 C 3 130 3 162 3 194 C 26 194 49 194 72 194 C 109 194 140 194 140 193 C 141 192 140 166 139 165 C 138 164 127 164 94 164 C 70 165 50 165 49 165 C 45 164 45 159 45 135 C 46 122 46 90 46 64 C 48 38 48 14 48 10 C 49 4 49 3 46 3 C 45 2 4 1 4 2 z" fill="black"/><!-- width=150 height=202 -->
<path id="gl7942" d="M 3 2 C 2 3 2 25 3 27 C 4 30 43 30 45 26 C 46 24 46 4 44 3 C 43 2 4 2 3 2 M 4 60 C 3 60 3 92 3 132 C 3 156 3 180 3 204 C 10 204 16 204 24 204 C 34 204 44 204 44 202 C 45 201 45 61 44 61 C 43 60 4 60 4 60 z" fill="black"/><!-- width=52 height=211 -->
<path id="gl7944" d="M 7 3 C 6 4 7 7 9 13 C 10 18 12 22 12 24 C 12 24 13 26 14 28 C 15 31 16 34 18 38 C 20 48 22 55 25 62 C 26 66 28 70 30 74 C 31 78 32 82 32 85 C 33 86 34 91 36 94 C 37 98 38 102 38 103 C 39 104 40 108 42 111 C 43 115 44 121 45 124 C 46 128 48 134 49 138 C 50 141 51 145 51 145 C 51 146 63 146 78 146 C 86 146 94 146 103 146 C 103 145 104 144 104 142 C 105 140 106 135 108 132 C 109 128 110 124 110 122 C 112 118 115 110 117 102 C 118 98 120 94 120 92 C 121 90 122 87 122 85 C 123 82 124 79 126 76 C 126 74 127 72 128 69 C 128 68 129 64 130 62 C 130 60 133 56 133 52 C 134 49 136 44 138 40 C 139 37 140 32 140 30 C 141 28 142 24 145 21 C 146 19 146 15 146 15 C 146 14 147 12 150 9 C 153 2 152 2 127 2 C 103 2 103 2 103 9 C 103 12 102 16 100 20 C 99 24 98 28 98 32 C 98 36 97 39 96 40 C 96 42 94 46 93 51 C 93 56 92 63 91 66 C 90 69 90 74 90 76 C 90 79 88 84 87 87 C 86 90 85 96 85 100 C 84 109 81 115 78 117 C 75 120 74 117 73 108 C 73 104 72 100 70 99 C 70 98 69 93 68 87 C 68 82 67 76 67 75 C 66 74 64 69 64 66 C 64 62 63 56 62 52 C 61 50 60 44 58 39 C 58 34 57 30 57 30 C 56 28 55 22 55 18 C 52 2 54 2 28 2 C 14 2 7 2 7 3 z" fill="black"/><!-- width=159 height=154 -->
<path id="gl7443" d="M 72 2 C 68 3 60 7 57 9 C 57 10 55 13 52 15 C 46 21 44 21 44 13 C 44 10 44 9 44 8 C 39 7 33 7 27 7 C 18 7 8 7 7 7 C 6 7 4 7 3 7 C 3 31 3 55 3 79 C 3 103 3 127 3 151 C 10 151 18 151 25 151 C 31 151 38 151 45 151 C 45 135 45 118 45 102 C 44 86 44 70 44 54 C 48 51 50 48 52 45 C 63 34 68 33 78 34 C 81 36 84 38 85 39 C 87 44 90 39 91 28 C 91 24 92 16 92 13 C 93 7 93 7 90 4 C 86 3 78 2 72 2 z" fill="black"/><!-- width=100 height=158 -->
<path id="gl7689" d="M 65 4 C 24 11 8 33 8 79 C 8 130 33 155 81 155 C 118 155 146 136 152 105 C 152 101 153 94 155 89 C 156 76 152 47 146 34 C 143 28 128 14 123 11 C 110 4 81 1 65 4 M 86 28 C 104 34 111 47 111 76 C 112 114 97 136 73 128 C 56 123 49 110 49 78 C 49 47 59 31 81 27 C 81 27 84 27 86 28 z" fill="black"/><!-- width=163 height=163 -->
<path id="gl6406" d="M 7 3 C 6 4 6 6 6 14 C 8 26 8 168 6 182 C 4 195 3 195 30 194 C 37 194 43 194 50 194 C 50 186 50 176 50 166 C 49 152 49 138 49 134 C 48 126 48 126 74 126 C 93 127 98 126 106 124 C 111 122 116 122 117 122 C 127 121 145 108 152 94 C 162 75 159 39 148 26 C 138 14 128 9 109 6 C 97 2 10 1 7 3 M 94 33 C 109 39 112 46 112 64 C 112 76 112 78 110 82 C 106 87 100 93 97 93 C 97 93 94 94 92 96 C 88 98 51 99 50 98 C 49 96 49 33 50 31 C 51 30 87 31 94 33 z" fill="black"/><!-- width=169 height=202 -->
<path id="gl7443" d="M 72 2 C 68 3 60 7 57 9 C 57 10 55 13 52 15 C 46 21 44 21 44 13 C 44 10 44 9 44 8 C 39 7 33 7 27 7 C 18 7 8 7 7 7 C 6 7 4 7 3 7 C 3 31 3 55 3 79 C 3 103 3 127 3 151 C 10 151 18 151 25 151 C 31 151 38 151 45 151 C 45 135 45 118 45 102 C 44 86 44 70 44 54 C 48 51 50 48 52 45 C 63 34 68 33 78 34 C 81 36 84 38 85 39 C 87 44 90 39 91 28 C 91 24 92 16 92 13 C 93 7 93 7 90 4 C 86 3 78 2 72 2 z" fill="black"/><!-- width=100 height=158 -->
<path id="gl7942" d="M 3 2 C 2 3 2 25 3 27 C 4 30 43 30 45 26 C 46 24 46 4 44 3 C 43 2 4 2 3 2 M 4 60 C 3 60 3 92 3 132 C 3 156 3 180 3 204 C 10 204 16 204 24 204 C 34 204 44 204 44 202 C 45 201 45 61 44 61 C 43 60 4 60 4 60 z" fill="black"/><!-- width=52 height=211 -->
<path id="gl7943" d="M 171 3 C 158 3 142 10 132 21 C 129 24 127 22 123 18 C 116 6 109 3 93 3 C 79 3 68 6 61 12 C 60 14 56 16 54 18 C 52 19 51 20 51 21 C 51 21 49 21 48 21 C 45 21 45 20 45 14 C 45 12 44 9 44 8 C 39 7 34 7 31 7 C 22 7 13 7 9 7 C 8 7 6 7 3 7 C 3 31 3 55 3 79 C 3 103 3 127 3 151 C 10 151 18 151 25 151 C 31 151 38 151 45 151 C 45 134 45 117 45 102 C 44 85 44 68 44 51 C 46 50 49 48 50 46 C 60 38 64 34 74 34 C 76 34 79 34 81 34 C 82 37 85 39 85 40 C 87 43 88 44 90 46 C 90 64 88 81 88 98 C 88 116 88 133 88 151 C 96 151 103 151 110 151 C 117 151 124 151 132 151 C 132 134 132 117 132 100 C 130 85 130 68 130 51 C 133 49 135 48 138 45 C 148 37 151 34 160 34 C 168 34 168 34 171 40 C 174 42 175 44 176 45 C 176 63 175 80 175 98 C 175 116 175 133 175 151 C 182 151 188 151 195 151 C 211 152 216 151 217 150 C 219 147 217 39 214 30 C 208 9 195 1 171 3 z" fill="black"/><!-- width=225 height=158 -->
<path id="gl7445" d="M 50 6 C 45 7 40 9 39 9 C 39 10 37 12 37 12 C 36 12 33 13 32 14 C 30 15 28 18 27 18 C 27 18 18 31 14 36 C 8 50 6 88 12 111 C 15 130 31 147 45 151 C 48 151 51 152 54 153 C 60 156 88 156 94 153 C 97 152 99 151 100 151 C 109 151 132 134 139 121 C 144 112 144 112 118 112 C 97 112 94 114 94 118 C 94 122 84 130 79 132 C 74 133 67 132 64 129 C 60 126 54 120 54 117 C 54 116 54 115 52 112 C 50 109 48 93 49 90 C 49 88 50 88 51 88 C 55 87 128 88 134 88 C 144 88 144 90 136 54 C 134 39 117 13 111 13 C 110 13 109 12 106 10 C 97 3 67 0 50 6 M 82 28 C 88 33 93 40 94 48 C 94 50 96 52 97 54 C 98 55 99 64 97 67 C 96 69 52 70 50 68 C 49 66 49 52 52 46 C 54 44 54 40 54 39 C 54 38 61 31 66 27 C 69 25 79 25 82 28 z" fill="black"/><!-- width=150 height=164 -->
<path id="gl7942" d="M 3 2 C 2 3 2 25 3 27 C 4 30 43 30 45 26 C 46 24 46 4 44 3 C 43 2 4 2 3 2 M 4 60 C 3 60 3 92 3 132 C 3 156 3 180 3 204 C 10 204 16 204 24 204 C 34 204 44 204 44 202 C 45 201 45 61 44 61 C 43 60 4 60 4 60 z" fill="black"/><!-- width=52 height=211 -->
<path id="gl7443" d="M 72 2 C 68 3 60 7 57 9 C 57 10 55 13 52 15 C 46 21 44 21 44 13 C 44 10 44 9 44 8 C 39 7 33 7 27 7 C 18 7 8 7 7 7 C 6 7 4 7 3 7 C 3 31 3 55 3 79 C 3 103 3 127 3 151 C 10 151 18 151 25 151 C 31 151 38 151 45 151 C 45 135 45 118 45 102 C 44 86 44 70 44 54 C 48 51 50 48 52 45 C 63 34 68 33 78 34 C 81 36 84 38 85 39 C 87 44 90 39 91 28 C 91 24 92 16 92 13 C 93 7 93 7 90 4 C 86 3 78 2 72 2 z" fill="black"/><!-- width=100 height=158 -->
<path id="gl7689" d="M 65 4 C 24 11 8 33 8 79 C 8 130 33 155 81 155 C 118 155 146 136 152 105 C 152 101 153 94 155 89 C 156 76 152 47 146 34 C 143 28 128 14 123 11 C 110 4 81 1 65 4 M 86 28 C 104 34 111 47 111 76 C 112 114 97 136 73 128 C 56 123 49 110 49 78 C 49 47 59 31 81 27 C 81 27 84 27 86 28 z" fill="black"/><!-- width=163 height=163 -->
</defs>
<use xlink:href="#gl6410" x="0" y="10"/>
<use xlink:href="#gl7942" x="168" y="0"/>
<use xlink:href="#gl7944" x="235" y="58"/>
<use xlink:href="#gl7443" x="408" y="53"/>
<use xlink:href="#gl7689" x="509" y="53"/>
<use xlink:href="#gl6406" x="768" y="10"/>
<use xlink:href="#gl7443" x="955" y="53"/>
<use xlink:href="#gl7942" x="1070" y="0"/>
<use xlink:href="#gl7943" x="1152" y="53"/>
<use xlink:href="#gl7445" x="1392" y="53"/>
<use xlink:href="#gl7942" x="1560" y="0"/>
<use xlink:href="#gl7443" x="1641" y="53"/>
<use xlink:href="#gl7689" x="1747" y="53"/>
</svg>
