<?xml version='1.0' encoding='utf-8'?>
<svg xmlns="http://www.w3.org/2000/svg" xmlns:xlink="http://www.w3.org/1999/xlink" width="195px" height="27px" viewBox="0 0 1955 279" version="1.1">
<defs>
<path id="gl6406" d="M 7 3 C 6 4 6 6 6 14 C 8 26 8 168 6 182 C 4 195 3 195 30 194 C 37 194 43 194 50 194 C 50 186 50 176 50 166 C 49 152 49 138 49 134 C 48 126 48 126 74 126 C 93 127 98 126 106 124 C 111 122 116 122 117 122 C 127 121 145 108 152 94 C 162 75 159 39 148 26 C 138 14 128 9 109 6 C 97 2 10 1 7 3 M 94 33 C 109 39 112 46 112 64 C 112 76 112 78 110 82 C 106 87 100 93 97 93 C 97 93 94 94 92 96 C 88 98 51 99 50 98 C 49 96 49 33 50 31 C 51 30 87 31 94 33 z" fill="black"/><!-- width=169 height=202 -->
<path id="gl7442" d="M 49 6 C 44 7 39 8 38 9 C 38 10 36 12 34 12 C 22 15 6 44 15 45 C 46 45 54 45 55 43 C 62 28 64 26 72 26 C 82 26 88 33 90 46 C 90 60 88 61 79 61 C 75 61 68 61 63 62 C 60 64 55 66 54 66 C 52 66 50 66 48 67 C 45 68 40 70 37 72 C 27 75 27 75 19 84 C 10 92 8 98 8 115 C 8 136 14 145 32 152 C 42 156 64 157 70 153 C 72 152 75 151 76 151 C 79 151 81 150 84 147 C 86 145 91 145 92 147 C 93 150 96 150 114 151 C 136 152 139 151 134 145 C 132 141 132 141 130 91 C 130 27 129 22 111 10 C 99 2 67 0 49 6 M 88 84 C 90 85 90 92 90 104 C 90 110 88 116 88 122 C 87 122 85 123 84 124 C 73 130 56 130 51 123 C 48 117 48 103 52 97 C 57 91 70 84 79 82 C 81 81 84 81 84 80 C 85 79 87 80 88 84 z" fill="black"/><!-- width=145 height=164 -->
<path id="gl7443" d="M 72 2 C 68 3 60 7 57 9 C 57 10 55 13 52 15 C 46 21 44 21 44 13 C 44 10 44 9 44 8 C 39 7 33 7 27 7 C 18 7 8 7 7 7 C 6 7 4 7 3 7 C 3 31 3 55 3 79 C 3 103 3 127 3 151 C 10 151 18 151 25 151 C 31 151 38 151 45 151 C 45 135 45 118 45 102 C 44 86 44 70 44 54 C 48 51 50 48 52 45 C 63 34 68 33 78 34 C 81 36 84 38 85 39 C 87 44 90 39 91 28 C 91 24 92 16 92 13 C 93 7 93 7 90 4 C 86 3 78 2 72 2 z" fill="black"/><!-- width=100 height=158 -->
<path id="gl7444" d="M 16 3 C 16 4 16 10 16 19 C 18 37 18 36 13 36 C 4 36 3 37 3 49 C 3 61 4 63 12 63 C 14 63 16 63 16 64 C 16 64 18 85 18 110 C 18 159 18 160 28 172 C 38 183 61 187 81 181 C 90 178 90 178 88 168 C 85 152 82 150 78 153 C 72 158 66 157 62 152 C 61 150 60 148 60 147 C 60 134 60 120 60 106 C 58 79 60 64 60 63 C 61 62 63 62 69 63 C 80 64 80 63 80 49 C 80 36 80 34 69 36 C 60 37 57 36 58 31 C 60 24 61 4 60 3 C 57 2 18 2 16 3 z" fill="black"/><!-- width=97 height=193 -->
<path id="gl7445" d="M 50 6 C 45 7 40 9 39 9 C 39 10 37 12 37 12 C 36 12 33 13 32 14 C 30 15 28 18 27 18 C 27 18 18 31 14 36 C 8 50 6 88 12 111 C 15 130 31 147 45 151 C 48 151 51 152 54 153 C 60 156 88 156 94 153 C 97 152 99 151 100 151 C 109 151 132 134 139 121 C 144 112 144 112 118 112 C 97 112 94 114 94 118 C 94 122 84 130 79 132 C 74 133 67 132 64 129 C 60 126 54 120 54 117 C 54 116 54 115 52 112 C 50 109 48 93 49 90 C 49 88 50 88 51 88 C 55 87 128 88 134 88 C 144 88 144 90 136 54 C 134 39 117 13 111 13 C 110 13 109 12 106 10 C 97 3 67 0 50 6 M 82 28 C 88 33 93 40 94 48 C 94 50 96 52 97 54 C 98 55 99 64 97 67 C 96 69 52 70 50 68 C 49 66 49 52 52 46 C 54 44 54 40 54 39 C 54 38 61 31 66 27 C 69 25 79 25 82 28 z" fill="black"/><!-- width=150 height=164 -->
<path id="gl6411" d="M 66 3 C 66 3 61 4 56 6 C 38 9 24 19 15 32 C 12 38 12 38 12 54 C 12 74 14 80 31 96 C 34 98 58 110 70 115 C 75 117 80 120 81 120 C 82 121 85 122 86 122 C 86 122 90 122 92 123 C 94 126 97 127 97 127 C 98 127 100 128 103 129 C 117 139 120 157 108 166 C 88 181 58 177 50 158 C 48 153 42 152 34 153 C 32 153 25 154 18 154 C 3 156 3 156 3 158 C 2 160 3 162 4 163 C 4 164 7 169 9 172 C 14 182 25 192 34 194 C 36 194 38 195 38 196 C 42 199 60 202 76 202 C 98 204 117 199 128 192 C 129 192 132 190 134 189 C 153 180 165 150 157 128 C 152 117 142 103 139 103 C 139 103 136 102 134 100 C 133 99 130 97 129 97 C 128 97 127 97 126 96 C 126 94 124 94 123 94 C 121 94 116 92 105 86 C 103 85 99 85 98 85 C 98 84 94 84 92 81 C 90 80 86 80 86 80 C 85 80 82 79 80 78 C 78 76 72 73 68 72 C 49 62 48 40 67 33 C 75 30 88 30 96 33 C 102 36 109 42 109 44 C 109 50 124 51 153 50 C 156 49 156 43 153 38 C 140 14 117 3 82 3 C 74 3 67 3 66 3 z" fill="black"/><!-- width=168 height=211 -->
<path id="gl7445" d="M 50 6 C 45 7 40 9 39 9 C 39 10 37 12 37 12 C 36 12 33 13 32 14 C 30 15 28 18 27 18 C 27 18 18 31 14 36 C 8 50 6 88 12 111 C 15 130 31 147 45 151 C 48 151 51 152 54 153 C 60 156 88 156 94 153 C 97 152 99 151 100 151 C 109 151 132 134 139 121 C 144 112 144 112 118 112 C 97 112 94 114 94 118 C 94 122 84 130 79 132 C 74 133 67 132 64 129 C 60 126 54 120 54 117 C 54 116 54 115 52 112 C 50 109 48 93 49 90 C 49 88 50 88 51 88 C 55 87 128 88 134 88 C 144 88 144 90 136 54 C 134 39 117 13 111 13 C 110 13 109 12 106 10 C 97 3 67 0 50 6 M 82 28 C 88 33 93 40 94 48 C 94 50 96 52 97 54 C 98 55 99 64 97 67 C 96 69 52 70 50 68 C 49 66 49 52 52 46 C 54 44 54 40 54 39 C 54 38 61 31 66 27 C 69 25 79 25 82 28 z" fill="black"/><!-- width=150 height=164 -->
<path id="gl7446" d="M 64 2 C 55 3 42 7 38 9 C 38 10 36 12 36 12 C 28 12 14 32 12 44 C 12 48 10 52 9 52 C 7 56 8 97 10 108 C 14 121 14 123 19 129 C 32 151 63 160 86 152 C 90 151 93 151 94 151 C 94 151 97 148 99 147 C 108 140 111 147 109 169 C 106 183 99 192 87 195 C 84 196 81 198 79 199 C 75 198 73 196 70 195 C 61 193 55 188 54 181 C 52 176 51 175 30 176 C 6 176 4 176 9 186 C 19 201 25 207 40 214 C 68 229 114 224 132 206 C 141 196 142 193 147 175 C 150 162 152 10 150 8 C 148 7 145 7 128 7 C 122 7 116 8 109 8 C 109 9 109 10 108 12 C 108 14 106 15 106 15 C 106 16 104 14 100 12 C 91 4 80 2 64 2 M 91 34 C 109 40 109 39 109 79 C 109 90 109 102 109 112 C 108 114 106 115 105 116 C 104 117 102 120 100 120 C 99 120 99 120 98 121 C 98 122 87 126 80 126 C 73 127 63 122 57 114 C 56 112 54 108 52 103 C 49 92 49 61 52 51 C 60 34 74 28 91 34 z" fill="black"/><!-- width=159 height=231 -->
<path id="gl7447" d="M 3 2 C 2 7 4 110 6 115 C 7 118 8 123 8 124 C 8 130 18 145 22 146 C 24 146 25 146 27 147 C 30 148 34 150 45 150 C 66 151 74 148 86 136 C 97 127 98 127 99 138 C 99 140 99 144 99 146 C 106 146 112 146 120 146 C 130 146 140 146 140 145 C 141 144 141 4 140 3 C 140 2 130 2 118 2 C 111 2 105 2 98 2 C 98 19 98 36 98 52 C 98 69 99 86 99 103 C 98 103 97 104 96 105 C 94 106 93 109 92 109 C 91 109 90 109 88 110 C 87 112 86 114 85 114 C 85 114 81 114 79 116 C 72 120 56 118 51 115 C 44 109 44 109 45 54 C 45 36 45 19 45 2 C 38 2 31 2 25 2 C 13 2 3 2 3 2 z" fill="black"/><!-- width=150 height=159 -->
<path id="gl7448" d="M 78 6 C 73 7 67 9 67 10 C 66 12 63 13 63 13 C 63 13 60 14 56 18 C 46 25 45 25 45 15 C 44 12 44 9 44 7 C 37 7 31 7 24 7 C 18 7 10 7 3 7 C 3 31 3 55 3 79 C 3 103 3 127 3 151 C 10 151 18 151 25 151 C 31 151 38 151 45 151 C 45 134 45 117 45 102 C 45 85 44 68 44 51 C 45 50 46 50 48 49 C 51 45 52 44 64 38 C 74 33 87 33 91 37 C 99 44 99 44 98 99 C 98 117 98 134 98 151 C 105 151 112 151 118 151 C 130 151 140 151 140 150 C 141 148 141 50 139 42 C 136 22 133 15 124 10 C 111 2 93 1 78 6 z" fill="black"/><!-- width=148 height=158 -->
<path id="gl7680" d="M 103 3 C 103 4 103 16 103 31 C 105 62 104 68 98 63 C 84 49 56 46 39 57 C 39 57 37 58 34 60 C 32 61 28 63 27 66 C 19 75 16 78 16 79 C 16 80 16 81 15 84 C 6 102 6 150 15 171 C 19 181 28 193 32 193 C 33 193 34 194 36 195 C 37 198 39 199 42 199 C 44 199 46 200 49 201 C 54 204 76 204 80 201 C 82 200 86 199 88 198 C 93 195 97 193 99 192 C 100 189 102 190 103 194 C 103 195 104 196 104 198 C 111 198 117 199 124 199 C 135 199 144 199 145 199 C 146 198 146 4 145 2 C 144 1 104 1 103 3 M 87 81 C 91 84 93 85 94 86 C 96 86 98 88 100 90 C 102 91 103 92 104 93 C 104 104 104 116 104 127 C 104 138 104 150 104 160 C 102 162 100 163 98 165 C 88 175 76 177 66 172 C 62 171 58 169 58 169 C 58 168 58 166 56 164 C 55 163 54 162 54 160 C 54 159 54 157 52 154 C 49 150 49 105 52 99 C 54 97 54 94 54 93 C 54 91 61 84 67 80 C 73 78 79 78 87 81 z" fill="black"/><!-- width=154 height=212 -->
<path id="gl7442" d="M 49 6 C 44 7 39 8 38 9 C 38 10 36 12 34 12 C 22 15 6 44 15 45 C 46 45 54 45 55 43 C 62 28 64 26 72 26 C 82 26 88 33 90 46 C 90 60 88 61 79 61 C 75 61 68 61 63 62 C 60 64 55 66 54 66 C 52 66 50 66 48 67 C 45 68 40 70 37 72 C 27 75 27 75 19 84 C 10 92 8 98 8 115 C 8 136 14 145 32 152 C 42 156 64 157 70 153 C 72 152 75 151 76 151 C 79 151 81 150 84 147 C 86 145 91 145 92 147 C 93 150 96 150 114 151 C 136 152 139 151 134 145 C 132 141 132 141 130 91 C 130 27 129 22 111 10 C 99 2 67 0 49 6 M 88 84 C 90 85 90 92 90 104 C 90 110 88 116 88 122 C 87 122 85 123 84 124 C 73 130 56 130 51 123 C 48 117 48 103 52 97 C 57 91 70 84 79 82 C 81 81 84 81 84 80 C 85 79 87 80 88 84 z" fill="black"/><!-- width=145 height=164 -->
</defs>
<use xlink:href="#gl6406" x="0" y="5"/>
<use xlink:href="#gl7442" x="178" y="48"/>
<use xlink:href="#gl7443" x="345" y="48"/>
<use xlink:href="#gl7444" x="441" y="19"/>
<use xlink:href="#gl7445" x="542" y="48"/>
<use xlink:href="#gl6411" x="782" y="0"/>
<use xlink:href="#gl7445" x="965" y="48"/>
<use xlink:href="#gl7446" x="1123" y="48"/>
<use xlink:href="#gl7447" x="1306" y="53"/>
<use xlink:href="#gl7448" x="1474" y="48"/>
<use xlink:href="#gl7680" x="1637" y="0"/>
<use xlink:href="#gl7442" x="1810" y="48"/>
</svg>
